<svg xmlns="http://www.w3.org/2000/svg" width="567" height="299" shape-rendering="crispEdges" viewBox="0 0 567 299"><title>labels1.svg</title><rect width="567" height="299" x=".5" y="0" fill="#f2f2f2"/><path fill="#fff" d="M0.500,299l 2.0, -2.0v -295h 563l 2.0, -2.0h -567v 299z"/><path fill="#a9a9a9" d="M0.500,299l 2.0, -2.0h 563v -295l 2.0, -2.0v 299h -567z"/><rect width="454" height="224" x="57" y="30" fill="#f2f2f2"/><path fill="#fff" d="M57,254l 1.000, -1.000v -222h 452l 1.000, -1.000h -454v 224z"/><path fill="#a9a9a9" d="M57,254l 1.000, -1.000h 452v -222l 1.000, -1.000v 224h -454z"/><rect width="454" height="224" x="57" y="30" fill="none" stroke="#000"/><path fill="none" stroke="#000" d="M57,254h 454"/><path fill="none" stroke="#000" stroke-dasharray="1 2" d="M57,30v 224M80,30v 224M103,30v 224M125,30v 224M148,30v 224M171,30v 224M193,30v 224M216,30v 224M239,30v 224M261,30v 224M284,30v 224M307,30v 224M329,30v 224M352,30v 224M375,30v 224M397,30v 224M420,30v 224M443,30v 224M465,30v 224M488,30v 224M511,30v 224"/><path fill="none" stroke="#000" d="M57,254v -224"/><path fill="none" stroke="#000" stroke-dasharray="1 2" d="M511,254h -454M511,215h -454M511,176h -454M511,137h -454M511,98h -454M511,59h -454"/><path fill="#7c99d1" d="M57,254v -8.6h 23v -13h 23v -11h 23v -21h 23v -22h 23v -28h 23v -38h 23v -12h 23v -25h 23v -17h 23v -19h 23v 32h 23v 18h 23v 37h 23v 22h 23v 41h 23v 24h 23v 0.391h 23v 18h 23v 10h 23v 11z"/><path fill="none" stroke="#000" d="M57,245h 23v -13h 23v -11h 23v -21h 23v -22h 23v -28h 23v -38h 23v -12h 23v -25h 23v -17h 23v -19h 23v 32h 23v 18h 23v 37h 23v 22h 23v 41h 23v 24h 23v 0.391h 23v 18h 23v 10h 23"/><path fill="none" stroke="#000" d="M57,254h 454"/><g><text x="67" y="260" fill="#000" font-family="Helvetica" font-size="7.8" font-weight="bold" transform="rotate(20,67,260)" xml:space="preserve">Jean</text></g><g><text x="90" y="260" fill="#000" font-family="Helvetica" font-size="7.8" font-weight="bold" transform="rotate(20,90,260)" xml:space="preserve">Pierre</text></g><g><text x="113" y="260" fill="#000" font-family="Helvetica" font-size="7.8" font-weight="bold" transform="rotate(20,113,260)" xml:space="preserve">Marie</text></g><g><text x="135" y="260" fill="#000" font-family="Helvetica" font-size="7.8" font-weight="bold" transform="rotate(20,135,260)" xml:space="preserve">Odile</text></g><g><text x="158" y="260" fill="#000" font-family="Helvetica" font-size="7.8" font-weight="bold" transform="rotate(20,158,260)" xml:space="preserve">Sebastien</text></g><g><text x="181" y="260" fill="#000" font-family="Helvetica" font-size="7.8" font-weight="bold" transform="rotate(20,181,260)" xml:space="preserve">Fons</text></g><g><text x="204" y="260" fill="#000" font-family="Helvetica" font-size="7.8" font-weight="bold" transform="rotate(20,204,260)" xml:space="preserve">Rene</text></g><g><text x="226" y="260" fill="#000" font-family="Helvetica" font-size="7.8" font-weight="bold" transform="rotate(20,226,260)" xml:space="preserve">Nicolas</text></g><g><text x="249" y="260" fill="#000" font-family="Helvetica" font-size="7.8" font-weight="bold" transform="rotate(20,249,260)" xml:space="preserve">Xavier</text></g><g><text x="272" y="260" fill="#000" font-family="Helvetica" font-size="7.8" font-weight="bold" transform="rotate(20,272,260)" xml:space="preserve">Greg</text></g><g><text x="294" y="260" fill="#000" font-family="Helvetica" font-size="7.8" font-weight="bold" transform="rotate(20,294,260)" xml:space="preserve">Bjarne</text></g><g><text x="317" y="260" fill="#000" font-family="Helvetica" font-size="7.8" font-weight="bold" transform="rotate(20,317,260)" xml:space="preserve">Anton</text></g><g><text x="340" y="260" fill="#000" font-family="Helvetica" font-size="7.8" font-weight="bold" transform="rotate(20,340,260)" xml:space="preserve">Otto</text></g><g><text x="362" y="260" fill="#000" font-family="Helvetica" font-size="7.8" font-weight="bold" transform="rotate(20,362,260)" xml:space="preserve">Eddy</text></g><g><text x="385" y="260" fill="#000" font-family="Helvetica" font-size="7.8" font-weight="bold" transform="rotate(20,385,260)" xml:space="preserve">Peter</text></g><g><text x="408" y="260" fill="#000" font-family="Helvetica" font-size="7.8" font-weight="bold" transform="rotate(20,408,260)" xml:space="preserve">Pasha</text></g><g><text x="431" y="260" fill="#000" font-family="Helvetica" font-size="7.8" font-weight="bold" transform="rotate(20,431,260)" xml:space="preserve">Philippe</text></g><g><text x="453" y="260" fill="#000" font-family="Helvetica" font-size="7.8" font-weight="bold" transform="rotate(20,453,260)" xml:space="preserve">Suzanne</text></g><g><text x="476" y="260" fill="#000" font-family="Helvetica" font-size="7.8" font-weight="bold" transform="rotate(20,476,260)" xml:space="preserve">Jeff</text></g><g><text x="499" y="260" fill="#000" font-family="Helvetica" font-size="7.8" font-weight="bold" transform="rotate(20,499,260)" xml:space="preserve">Valery</text></g><path fill="none" stroke="#000" d="M57,247v 7.2M80,247v 7.2M103,247v 7.2M125,247v 7.2M148,247v 7.2M171,247v 7.2M193,247v 7.2M216,247v 7.2M239,247v 7.2M261,247v 7.2M284,247v 7.2M307,247v 7.2M329,247v 7.2M352,247v 7.2M375,247v 7.2M397,247v 7.2M420,247v 7.2M443,247v 7.2M465,247v 7.2M488,247v 7.2M511,247v 7.2"/><path fill="none" stroke="#000" d="M57,254v -224"/><path fill="none" stroke="#000" d="M70,254h -13M64,246h -6.4M64,238h -6.4M64,230h -6.4M64,223h -6.4M70,215h -13M64,207h -6.4M64,199h -6.4M64,191h -6.4M64,184h -6.4M70,176h -13M64,168h -6.4M64,160h -6.4M64,152h -6.4M64,144h -6.4M70,137h -13M64,129h -6.4M64,121h -6.4M64,113h -6.4M64,105h -6.4M70,98h -13M64,90h -6.4M64,82h -6.4M64,74h -6.4M64,66h -6.4M70,59h -13M64,51h -6.4M64,43h -6.4M64,35h -6.4"/><text x="48" y="259" fill="#000" font-family="Helvetica" font-size="11" font-weight="bold" xml:space="preserve">0</text><text x="35" y="220" fill="#000" font-family="Helvetica" font-size="11" font-weight="bold" xml:space="preserve">100</text><text x="35" y="180" fill="#000" font-family="Helvetica" font-size="11" font-weight="bold" xml:space="preserve">200</text><text x="35" y="141" fill="#000" font-family="Helvetica" font-size="11" font-weight="bold" xml:space="preserve">300</text><text x="35" y="102" fill="#000" font-family="Helvetica" font-size="11" font-weight="bold" xml:space="preserve">400</text><text x="35" y="63" fill="#000" font-family="Helvetica" font-size="11" font-weight="bold" xml:space="preserve">500</text><rect width="46" height="15" x="6.2" y="1.5" fill="#f2f2f2"/><path fill="#000" d="M4.9,3.4v 14h 45v -1.3h -44v -13z"/><path fill="none" stroke="#000" d="M6.2,16v -15h 46v 15h -46z"/><text x="14" y="14" fill="#000" font-family="Helvetica" font-size="12" font-weight="bold" xml:space="preserve">hlab1</text><rect width="215" height="84" x="341" y="6" fill="#e5e5e5"/><path fill="#000" d="M344,90v 2.5h 214v -82h -2.5v 80z"/><path fill="none" stroke="#000" d="M341,90v -84h 215v 84h -215z"/><text x="351" y="20" fill="#000" font-family="Helvetica" font-size="11" font-weight="bold" xml:space="preserve">Use the axis Context Menu LabelsOption</text><text x="351" y="40" fill="#000" font-family="Helvetica" font-size="11" font-weight="bold" xml:space="preserve">&quot;a&quot; to sort by alphabetic order</text><text x="351" y="61" fill="#000" font-family="Helvetica" font-size="11" font-weight="bold" xml:space="preserve">&quot;&gt;&quot; to sort by decreasing values</text><text x="351" y="82" fill="#000" font-family="Helvetica" font-size="11" font-weight="bold" xml:space="preserve">&quot;&lt;&quot; to sort by increasing values</text><rect width="46" height="15" x="6.2" y="1.5" fill="#f2f2f2"/><path fill="#000" d="M4.9,3.4v 14h 45v -1.3h -44v -13z"/><path fill="none" stroke="#000" d="M6.2,16v -15h 46v 15h -46z"/><text x="14" y="14" fill="#000" font-family="Helvetica" font-size="12" font-weight="bold" xml:space="preserve">hlab1</text></svg>