<svg xmlns="http://www.w3.org/2000/svg" width="567" height="173" shape-rendering="crispEdges" viewBox="0 0 567 173"><title>tgaxis6.svg</title><rect width="567" height="172" x=".5" y="0" fill="#f2f2f2"/><path fill="#fff" d="M0.500,172l 2.0, -2.0v -168h 563l 2.0, -2.0h -567v 172z"/><path fill="#a9a9a9" d="M0.500,172l 2.0, -2.0h 563v -168l 2.0, -2.0v 172h -567z"/><path fill="none" stroke="#000" d="M24,126h 520"/><path fill="none" stroke="#000" d="M24,118v 7.9M35,122v 3.9M45,122v 3.9M55,122v 3.9M66,122v 3.9M76,118v 7.9M86,122v 3.9M97,122v 3.9M107,122v 3.9M118,122v 3.9M128,118v 7.9M138,122v 3.9M149,122v 3.9M159,122v 3.9M170,122v 3.9M180,118v 7.9M190,122v 3.9M201,122v 3.9M211,122v 3.9M222,122v 3.9M232,118v 7.9M242,122v 3.9M253,122v 3.9M263,122v 3.9M274,122v 3.9M284,118v 7.9M294,122v 3.9M305,122v 3.9M315,122v 3.9M326,122v 3.9M336,118v 7.9M346,122v 3.9M357,122v 3.9M367,122v 3.9M378,122v 3.9M388,118v 7.9M398,122v 3.9M409,122v 3.9M419,122v 3.9M429,122v 3.9M440,118v 7.9M450,122v 3.9M461,122v 3.9M471,122v 3.9M481,122v 3.9M492,118v 7.9M502,122v 3.9M513,122v 3.9M523,122v 3.9M533,122v 3.9M544,118v 7.9"/><text x="21" y="137" fill="red" font-family="Helvetica" font-size="12" font-weight="bold" xml:space="preserve">0</text><text x="70" y="137" fill="#000" font-family="Helvetica" font-size="12" font-weight="bold" xml:space="preserve">10</text><text x="174" y="137" fill="#000" font-family="Helvetica" font-size="12" font-weight="bold" xml:space="preserve">30</text><g><text x="227" y="140" fill="#000" font-family="Helvetica" font-size="12" font-weight="bold" transform="rotate(-30,227,140)" xml:space="preserve">40</text></g><text x="261" y="137" fill="#0f0" font-family="Helvetica" font-size="12" font-weight="bold" xml:space="preserve">6th label</text><text x="330" y="137" fill="#000" font-family="Helvetica" font-size="12" font-weight="bold" xml:space="preserve">60</text><text x="382" y="137" fill="#000" font-family="Helvetica" font-size="12" font-weight="bold" xml:space="preserve">70</text><text x="434" y="137" fill="#000" font-family="Helvetica" font-size="12" font-weight="bold" xml:space="preserve">80</text><text x="449" y="137" fill="#0f0" font-family="Helvetica" font-size="12" font-weight="bold" xml:space="preserve">2nd to last label</text><text x="534" y="137" fill="#000" font-family="Helvetica" font-size="12" font-weight="bold" xml:space="preserve">100</text><text x="443" y="152" fill="#00f" font-family="Helvetica" font-size="13" xml:space="preserve">ChangeLabel axis</text><path fill="none" stroke="#000" d="M24,80h 520"/><path fill="none" stroke="#000" d="M24,72v 7.9M35,76v 3.9M45,76v 3.9M55,76v 3.9M66,76v 3.9M76,72v 7.9M86,76v 3.9M97,76v 3.9M107,76v 3.9M118,76v 3.9M128,72v 7.9M138,76v 3.9M149,76v 3.9M159,76v 3.9M170,76v 3.9M180,72v 7.9M190,76v 3.9M201,76v 3.9M211,76v 3.9M222,76v 3.9M232,72v 7.9M242,76v 3.9M253,76v 3.9M263,76v 3.9M274,76v 3.9M284,72v 7.9M294,76v 3.9M305,76v 3.9M315,76v 3.9M326,76v 3.9M336,72v 7.9M346,76v 3.9M357,76v 3.9M367,76v 3.9M378,76v 3.9M388,72v 7.9M398,76v 3.9M409,76v 3.9M419,76v 3.9M429,76v 3.9M440,72v 7.9M450,76v 3.9M461,76v 3.9M471,76v 3.9M481,76v 3.9M492,72v 7.9M502,76v 3.9M513,76v 3.9M523,76v 3.9M533,76v 3.9M544,72v 7.9"/><text x="21" y="91" fill="red" font-family="Helvetica" font-size="12" font-weight="bold" xml:space="preserve">0</text><text x="70" y="91" fill="#000" font-family="Helvetica" font-size="12" font-weight="bold" xml:space="preserve">10</text><text x="174" y="91" fill="#000" font-family="Helvetica" font-size="12" font-weight="bold" xml:space="preserve">30</text><g><text x="227" y="94" fill="#000" font-family="Helvetica" font-size="12" font-weight="bold" transform="rotate(-30,227,94)" xml:space="preserve">40</text></g><text x="254" y="91" fill="#00f" font-family="Helvetica" font-size="12" font-weight="bold" xml:space="preserve">blue for 50.</text><text x="330" y="91" fill="#000" font-family="Helvetica" font-size="12" font-weight="bold" xml:space="preserve">60</text><text x="382" y="91" fill="#000" font-family="Helvetica" font-size="12" font-weight="bold" xml:space="preserve">70</text><text x="434" y="91" fill="#000" font-family="Helvetica" font-size="12" font-weight="bold" xml:space="preserve">80</text><text x="458" y="91" fill="#0f0" font-family="Helvetica" font-size="12" font-weight="bold" xml:space="preserve">green for 90.</text><text x="534" y="91" fill="#000" font-family="Helvetica" font-size="12" font-weight="bold" xml:space="preserve">100</text><text x="396" y="106" fill="#00f" font-family="Helvetica" font-size="13" xml:space="preserve">ChangeLabelByValue axis</text><path fill="none" stroke="#000" d="M24,34h 520"/><path fill="none" stroke="#000" d="M24,27v 7.9M35,30v 3.9M45,30v 3.9M55,30v 3.9M66,30v 3.9M76,27v 7.9M86,30v 3.9M97,30v 3.9M107,30v 3.9M118,30v 3.9M128,27v 7.9M138,30v 3.9M149,30v 3.9M159,30v 3.9M170,30v 3.9M180,27v 7.9M190,30v 3.9M201,30v 3.9M211,30v 3.9M222,30v 3.9M232,27v 7.9M242,30v 3.9M253,30v 3.9M263,30v 3.9M274,30v 3.9M284,27v 7.9M294,30v 3.9M305,30v 3.9M315,30v 3.9M326,30v 3.9M336,27v 7.9M346,30v 3.9M357,30v 3.9M367,30v 3.9M378,30v 3.9M388,27v 7.9M398,30v 3.9M409,30v 3.9M419,30v 3.9M429,30v 3.9M440,27v 7.9M450,30v 3.9M461,30v 3.9M471,30v 3.9M481,30v 3.9M492,27v 7.9M502,30v 3.9M513,30v 3.9M523,30v 3.9M533,30v 3.9M544,27v 7.9"/><text x="21" y="45" fill="#000" font-family="Helvetica" font-size="12" font-weight="bold" xml:space="preserve">0</text><text x="70" y="45" fill="#000" font-family="Helvetica" font-size="12" font-weight="bold" xml:space="preserve">10</text><text x="122" y="45" fill="#000" font-family="Helvetica" font-size="12" font-weight="bold" xml:space="preserve">20</text><text x="174" y="45" fill="#000" font-family="Helvetica" font-size="12" font-weight="bold" xml:space="preserve">30</text><text x="226" y="45" fill="#000" font-family="Helvetica" font-size="12" font-weight="bold" xml:space="preserve">40</text><text x="278" y="45" fill="#000" font-family="Helvetica" font-size="12" font-weight="bold" xml:space="preserve">50</text><text x="330" y="45" fill="#000" font-family="Helvetica" font-size="12" font-weight="bold" xml:space="preserve">60</text><text x="382" y="45" fill="#000" font-family="Helvetica" font-size="12" font-weight="bold" xml:space="preserve">70</text><text x="434" y="45" fill="#000" font-family="Helvetica" font-size="12" font-weight="bold" xml:space="preserve">80</text><text x="486" y="45" fill="#000" font-family="Helvetica" font-size="12" font-weight="bold" xml:space="preserve">90</text><text x="534" y="45" fill="#000" font-family="Helvetica" font-size="12" font-weight="bold" xml:space="preserve">100</text><text x="474" y="60" fill="#00f" font-family="Helvetica" font-size="13" xml:space="preserve">Original axis</text></svg>