<svg xmlns="http://www.w3.org/2000/svg" width="567" height="545" shape-rendering="crispEdges" viewBox="0 0 567 545"><title>th2_axlabels.svg</title><rect width="567" height="544" x=".5" y="0" fill="#f2f2f2"/><path fill="#fff" d="M0.500,544l 2.0, -2.0v -540h 563l 2.0, -2.0h -567v 544z"/><path fill="#a9a9a9" d="M0.500,544l 2.0, -2.0h 563v -540l 2.0, -2.0v 544h -567z"/><rect width="454" height="435" x="57" y="54" fill="#f2f2f2"/><path fill="#fff" d="M57,490l 1.000, -1.000v -433h 452l 1.000, -1.000h -454v 435z"/><path fill="#a9a9a9" d="M57,490l 1.000, -1.000h 452v -433l 1.000, -1.000v 435h -454z"/><rect width="454" height="435" x="57" y="54" fill="none" stroke="#000"/><rect width="45" height="44" x="57" y="446" fill="#b2bc65"/><rect width="45" height="44" x="148" y="359" fill="#f4c53a"/><rect width="45" height="44" x="193" y="316" fill="#fae61c"/><rect width="45" height="44" x="239" y="272" fill="#f9f90e"/><rect width="45" height="44" x="284" y="229" fill="#73bd80"/><rect width="45" height="44" x="329" y="185" fill="#263da8"/><rect width="41" height="27" x="6.2" y="2.7" fill="#f2f2f2"/><path fill="#000" d="M4.3,5.6v 26h 40v -1.9h -38v -24z"/><path fill="none" stroke="#000" d="M6.2,30v -27h 41v 27h -41z"/><text x="14" y="25" fill="#000" font-family="Helvetica" font-size="22" font-weight="bold" xml:space="preserve">h2</text><path fill="none" stroke="#000" d="M57,490h 454"/><path fill="none" stroke="#000" d="M80,477v 13M89,483v 6.5M98,483v 6.5M107,483v 6.5M116,483v 6.5M125,477v 13M134,483v 6.5M143,483v 6.5M152,483v 6.5M162,483v 6.5M171,477v 13M180,483v 6.5M189,483v 6.5M198,483v 6.5M207,483v 6.5M216,477v 13M225,483v 6.5M234,483v 6.5M243,483v 6.5M252,483v 6.5M261,477v 13M270,483v 6.5M279,483v 6.5M289,483v 6.5M298,483v 6.5M307,477v 13M316,483v 6.5M325,483v 6.5M334,483v 6.5M343,483v 6.5M352,477v 13M361,483v 6.5M370,483v 6.5M379,483v 6.5M388,483v 6.5M397,477v 13M406,483v 6.5M415,483v 6.5M425,483v 6.5M434,483v 6.5M443,477v 13M452,483v 6.5M461,483v 6.5M470,483v 6.5M479,483v 6.5M488,477v 13M71,483v 6.5M62,483v 6.5M497,483v 6.5M506,483v 6.5"/><text x="76" y="510" fill="#000" font-family="Helvetica" font-size="20" font-weight="bold" xml:space="preserve">1</text><text x="82" y="510" fill="#0f0" font-family="Helvetica" font-size="20" font-weight="bold" xml:space="preserve">2nd label</text><text x="165" y="510" fill="#000" font-family="Helvetica" font-size="20" font-weight="bold" xml:space="preserve">3</text><text x="211" y="510" fill="#000" font-family="Helvetica" font-size="20" font-weight="bold" xml:space="preserve">4</text><text x="256" y="510" fill="#000" font-family="Helvetica" font-size="20" font-weight="bold" xml:space="preserve">5</text><text x="301" y="510" fill="#000" font-family="Helvetica" font-size="20" font-weight="bold" xml:space="preserve">6</text><text x="346" y="510" fill="#000" font-family="Helvetica" font-size="20" font-weight="bold" xml:space="preserve">7</text><text x="392" y="510" fill="#000" font-family="Helvetica" font-size="20" font-weight="bold" xml:space="preserve">8</text><text x="393" y="510" fill="#0f0" font-family="Helvetica" font-size="20" font-weight="bold" xml:space="preserve">2nd to last</text><text x="477" y="510" fill="#000" font-family="Helvetica" font-size="20" font-weight="bold" xml:space="preserve">10</text><path fill="none" stroke="#000" d="M57,490v -435"/><path fill="none" stroke="#000" d="M71,468h -14M64,459h -6.8M64,451h -6.8M64,442h -6.8M64,433h -6.8M71,424h -14M64,416h -6.8M64,407h -6.8M64,398h -6.8M64,390h -6.8M71,381h -14M64,372h -6.8M64,363h -6.8M64,355h -6.8M64,346h -6.8M71,337h -14M64,329h -6.8M64,320h -6.8M64,311h -6.8M64,303h -6.8M71,294h -14M64,285h -6.8M64,276h -6.8M64,268h -6.8M64,259h -6.8M71,250h -14M64,242h -6.8M64,233h -6.8M64,224h -6.8M64,215h -6.8M71,207h -14M64,198h -6.8M64,189h -6.8M64,181h -6.8M64,172h -6.8M71,163h -14M64,155h -6.8M64,146h -6.8M64,137h -6.8M64,128h -6.8M71,120h -14M64,111h -6.8M64,102h -6.8M64,94h -6.8M64,85h -6.8M71,76h -14M64,477h -6.8M64,485h -6.8M64,67h -6.8M64,59h -6.8"/><text x="47" y="476" fill="#000" font-family="Helvetica" font-size="20" font-weight="bold" xml:space="preserve">1</text><text x="44" y="433" fill="#000" font-family="Helvetica" font-size="20" font-weight="bold" xml:space="preserve">2</text><g><text x="-6.7" y="425" fill="#00f" font-family="Helvetica" font-size="20" font-weight="bold" transform="rotate(-30,-6.7,425)" xml:space="preserve">Value 3.</text></g><text x="44" y="345" fill="#000" font-family="Helvetica" font-size="20" font-weight="bold" xml:space="preserve">4</text><text x="44" y="301" fill="#000" font-family="Helvetica" font-size="20" font-weight="bold" xml:space="preserve">5</text><text x="44" y="258" fill="#000" font-family="Helvetica" font-size="20" font-weight="bold" xml:space="preserve">6</text><text x="43" y="215" fill="#000" font-family="Helvetica" font-size="20" font-weight="bold" xml:space="preserve">7</text><g><text x="-15" y="133" fill="#00f" font-family="Helvetica" font-size="20" font-weight="bold" transform="rotate(-330,-15,133)" xml:space="preserve">Value 8.</text></g><text x="44" y="128" fill="#000" font-family="Helvetica" font-size="20" font-weight="bold" xml:space="preserve">9</text><text x="32" y="84" fill="#000" font-family="Helvetica" font-size="20" font-weight="bold" xml:space="preserve">10</text><rect width="113" height="131" x="443" y="2.7" fill="#f2f2f2"/><path fill="#000" d="M446,133v 1.9h 112v -130h -1.9v 128z"/><path fill="none" stroke="#000" d="M443,133v -131h 113v 131h -113z"/><text x="488" y="22" fill="#000" font-family="Helvetica" font-size="19" font-weight="bold" xml:space="preserve">h2</text><path fill="none" stroke="#000" d="M443,24h 113"/><text x="448" y="41" fill="#000" font-family="Helvetica" font-size="13" font-weight="bold" xml:space="preserve">Entries</text><text x="540" y="41" fill="#000" font-family="Helvetica" font-size="13" font-weight="bold" xml:space="preserve">8</text><text x="448" y="62" fill="#000" font-family="Helvetica" font-size="13" font-weight="bold" xml:space="preserve">Mean x</text><text x="510" y="62" fill="#000" font-family="Helvetica" font-size="13" font-weight="bold" xml:space="preserve">0.3333</text><text x="448" y="83" fill="#000" font-family="Helvetica" font-size="13" font-weight="bold" xml:space="preserve">Mean y</text><text x="510" y="84" fill="#000" font-family="Helvetica" font-size="13" font-weight="bold" xml:space="preserve">0.3333</text><text x="448" y="106" fill="#000" font-family="Helvetica" font-size="13" font-weight="bold" xml:space="preserve">Std Dev x</text><text x="523" y="106" fill="#000" font-family="Helvetica" font-size="13" font-weight="bold" xml:space="preserve">0</text><text x="448" y="127" fill="#000" font-family="Helvetica" font-size="13" font-weight="bold" xml:space="preserve">Std Dev y</text><text x="523" y="128" fill="#000" font-family="Helvetica" font-size="13" font-weight="bold" xml:space="preserve">0</text><rect width="41" height="27" x="6.2" y="2.7" fill="#f2f2f2"/><path fill="#000" d="M4.3,5.6v 26h 40v -1.9h -38v -24z"/><path fill="none" stroke="#000" d="M6.2,30v -27h 41v 27h -41z"/><text x="14" y="25" fill="#000" font-family="Helvetica" font-size="22" font-weight="bold" xml:space="preserve">h2</text></svg>